<?xml version="1.0" standalone="no"?>
<!DOCTYPE svg PUBLIC "-//W3C//DTD SVG 20010904//EN"
 "http://www.w3.org/TR/2001/REC-SVG-20010904/DTD/svg10.dtd">
<svg version="1.0" xmlns="http://www.w3.org/2000/svg"
 width="1667.000000pt" height="1667.000000pt" viewBox="0 0 1667.000000 1667.000000"
 preserveAspectRatio="xMidYMid meet">
<metadata>
Created by potrace 1.16, written by Peter Selinger 2001-2019
</metadata>
<g transform="translate(0.000000,1667.000000) scale(0.100000,-0.100000)"
fill="#000000" stroke="none">
<path d="M4120 15523 c-8 -3 -18 -11 -22 -17 -4 -6 -8 -152 -8 -323 l0 -313
-111 0 c-92 0 -110 -2 -107 -15 2 -8 89 -118 193 -244 141 -171 196 -231 212
-231 25 0 57 36 240 275 163 214 162 213 143 225 -8 5 -59 10 -112 10 l-98 0
0 310 c0 296 -1 310 -19 320 -20 10 -284 13 -311 3z"/>
<path d="M8175 15515 c-97 -21 -166 -52 -235 -104 -187 -141 -269 -376 -210
-605 27 -108 63 -169 150 -257 118 -119 242 -172 405 -172 164 0 300 58 414
178 108 114 161 244 161 395 0 180 -83 350 -224 457 -77 58 -143 87 -239 107
-90 19 -141 19 -222 1z m405 -630 c-35 -36 -68 -65 -72 -65 -4 0 -8 14 -8 30
l0 30 -215 0 -215 0 0 -30 c0 -16 -4 -30 -8 -30 -4 0 -37 29 -72 65 l-64 65
64 65 c35 36 68 65 72 65 4 0 8 -13 8 -30 l0 -30 215 0 215 0 0 37 0 38 72
-72 73 -73 -65 -65z"/>
<path d="M10182 15519 c-137 -23 -276 -110 -362 -227 -71 -96 -101 -183 -107
-307 -7 -125 7 -192 58 -294 170 -341 625 -421 904 -160 68 64 116 138 153
237 36 95 38 255 4 357 -67 199 -232 346 -437 390 -77 16 -133 17 -213 4z
m168 -284 l64 -65 -32 0 -32 0 2 -217 3 -218 28 -5 c28 -5 28 -5 -38 -70 l-65
-65 -68 68 -67 67 33 0 32 0 0 220 0 220 -32 0 -32 0 64 65 c35 36 67 65 70
65 3 0 35 -29 70 -65z"/>
<path d="M12183 15520 c-77 -14 -165 -53 -238 -104 -302 -216 -316 -670 -27
-910 173 -143 417 -171 622 -70 147 73 266 223 305 385 30 128 9 288 -52 402
-36 67 -134 171 -200 213 -110 71 -284 106 -410 84z m173 -500 l284 0 0 -70 0
-70 -285 0 -285 0 0 -30 c0 -16 -4 -30 -8 -30 -4 0 -37 29 -72 65 l-64 65 69
70 70 71 3 -36 3 -35 285 0z"/>
<path d="M14165 15516 c-133 -31 -220 -81 -310 -177 -74 -80 -109 -144 -135
-245 -52 -203 1 -397 149 -545 266 -266 686 -221 892 94 106 162 118 391 30
565 -93 184 -277 305 -485 317 -50 3 -103 0 -141 -9z m365 -595 c-16 -20 -78
-85 -139 -146 l-111 -110 0 108 0 107 -145 0 -145 0 0 70 0 70 145 0 145 0 0
107 0 108 139 -139 140 -140 -29 -35z"/>
<path d="M2004 15240 c-131 -154 -239 -284 -239 -289 0 -5 108 -136 240 -290
l240 -281 203 0 c115 0 201 4 198 9 -3 5 -80 96 -171 202 l-165 194 375 3 375
2 0 165 0 165 -370 0 c-203 0 -370 2 -370 6 0 3 68 85 152 182 83 97 158 185
166 195 14 16 4 17 -190 17 l-204 0 -240 -280z"/>
<path d="M5902 15377 l-142 -142 285 -285 285 -285 -142 -142 -143 -143 428 0
427 0 0 427 0 428 -138 -138 c-75 -75 -142 -137 -147 -137 -5 0 -136 126 -290
280 l-280 280 -143 -143z"/>
<path d="M14183 13430 c-212 -38 -384 -188 -448 -393 -24 -76 -25 -86 -25
-391 0 -229 3 -315 12 -324 17 -17 55 -15 66 3 7 13 13 8 33 -22 33 -53 81
-75 147 -70 64 5 99 28 130 87 19 38 22 60 22 150 0 90 -3 112 -22 150 -32 61
-66 83 -135 87 -68 5 -110 -16 -144 -69 l-20 -33 3 155 3 155 37 78 c187 391
745 360 889 -49 16 -45 22 -93 26 -204 l5 -145 -24 35 c-41 60 -84 82 -149 78
-63 -5 -110 -32 -137 -81 -14 -26 -17 -57 -17 -158 0 -119 1 -127 27 -166 66
-100 205 -98 274 5 16 24 23 28 28 17 7 -18 50 -20 64 -2 7 8 11 121 12 327 2
272 0 323 -15 370 -60 191 -206 338 -393 394 -69 20 -183 27 -249 16z"/>
<path d="M6030 13417 c-34 -17 -50 -53 -50 -114 l0 -53 -104 0 c-89 0 -107 -3
-130 -21 l-26 -20 0 -463 c0 -402 2 -464 16 -484 l15 -22 578 0 c547 0 579 1
594 18 15 17 17 65 17 483 0 255 -4 469 -8 475 -16 25 -56 34 -151 34 l-101 0
0 59 c0 77 -28 115 -84 115 -56 0 -79 -29 -84 -109 l-4 -65 -179 0 -179 0 0
59 c0 48 -5 65 -22 85 -28 31 -65 40 -98 23z m-20 -527 l0 -80 -80 0 -80 0 0
80 0 80 80 0 80 0 0 -80z m280 0 l0 -80 -95 0 -95 0 0 80 0 80 95 0 95 0 0
-80z m270 0 l0 -80 -95 0 -95 0 0 80 0 80 95 0 95 0 0 -80z m260 0 l0 -80 -85
0 -85 0 0 80 0 80 85 0 85 0 0 -80z m-810 -220 l0 -60 -80 0 -80 0 0 60 0 60
80 0 80 0 0 -60z m280 0 l0 -60 -95 0 -95 0 0 60 0 60 95 0 95 0 0 -60z m270
0 l0 -60 -95 0 -95 0 0 60 0 60 95 0 95 0 0 -60z m260 0 l0 -60 -85 0 -85 0 0
60 0 60 85 0 85 0 0 -60z m-810 -230 l0 -80 -80 0 -80 0 0 80 0 80 80 0 80 0
0 -80z m280 0 l0 -80 -95 0 -95 0 0 80 0 80 95 0 95 0 0 -80z m270 0 l0 -80
-95 0 -95 0 0 80 0 80 95 0 95 0 0 -80z m260 0 l0 -80 -85 0 -85 0 0 80 0 80
85 0 85 0 0 -80z"/>
<path d="M8160 13404 c-211 -45 -395 -226 -445 -435 -86 -368 192 -722 570
-722 323 0 585 262 585 583 0 161 -59 301 -174 416 -143 143 -340 201 -536
158z m212 -145 c276 -59 426 -358 306 -611 -44 -92 -117 -167 -207 -211 -63
-31 -71 -32 -186 -32 -116 0 -122 1 -187 34 -88 44 -160 116 -204 206 -158
319 130 688 478 614z"/>
<path d="M8235 13175 c-25 -24 -25 -27 -25 -193 0 -156 2 -171 21 -196 l20
-26 180 0 c166 0 180 1 199 20 27 27 26 81 -1 106 -18 16 -40 20 -145 22
l-124 4 0 119 c0 114 -1 121 -25 144 -13 14 -36 25 -50 25 -14 0 -37 -11 -50
-25z"/>
<path d="M12573 13352 c-43 -38 -84 -76 -92 -85 -19 -23 -28 -21 -68 13 -36
32 -41 34 -61 21 -19 -12 -27 -414 -8 -430 9 -8 62 -7 201 6 175 16 188 18
202 40 14 21 13 25 -27 70 l-42 48 86 81 c47 44 86 86 86 92 0 13 -162 192
-185 205 -10 5 -39 -14 -92 -61z m140 -80 l57 -58 -79 -72 c-44 -40 -83 -81
-86 -93 -5 -13 2 -31 19 -54 14 -18 26 -36 26 -38 0 -3 -48 -8 -107 -11 -60
-4 -116 -10 -125 -12 -17 -5 -18 6 -18 132 0 132 1 137 18 121 35 -32 61 -21
146 63 44 44 83 80 86 80 3 0 31 -26 63 -58z"/>
<path d="M4085 13383 c-411 -143 -531 -659 -225 -963 117 -116 237 -165 405
-165 132 0 218 23 312 84 167 108 260 266 270 461 14 259 -132 483 -375 577
-55 22 -88 27 -187 30 -111 3 -126 2 -200 -24z m343 -369 c78 -69 142 -131
142 -138 0 -17 -21 -36 -41 -36 -9 0 -70 47 -135 105 -66 57 -122 104 -126
102 -4 -1 -59 -48 -123 -104 -64 -57 -125 -103 -135 -103 -26 0 -43 32 -27 53
27 35 273 246 287 247 8 0 79 -57 158 -126z m1 -279 c77 -69 141 -131 141
-138 0 -18 -21 -37 -39 -37 -9 0 -70 47 -135 105 -66 58 -122 105 -126 105 -3
0 -59 -47 -124 -105 -65 -58 -127 -105 -137 -105 -10 0 -23 9 -29 19 -8 16 -5
25 12 45 49 54 263 236 279 236 9 0 80 -56 158 -125z"/>
<path d="M9815 13398 c-39 -21 -95 -82 -106 -115 -21 -66 -8 -86 179 -275
l176 -178 -176 -177 c-181 -183 -199 -210 -183 -265 11 -35 105 -126 137 -133
64 -14 86 1 268 181 l176 174 169 -170 c176 -176 207 -198 266 -185 36 8 104
66 125 106 17 33 18 82 3 112 -6 12 -86 97 -177 189 l-167 168 161 162 c89 90
169 174 178 188 9 13 16 44 16 68 0 39 -5 49 -54 100 -54 56 -56 57 -110 57
l-56 0 -178 -178 -177 -177 -165 166 c-91 91 -177 172 -192 180 -32 17 -85 18
-113 2z"/>
<path d="M1550 13245 l-154 -154 118 -123 c171 -177 195 -200 206 -193 6 3 10
49 10 102 l0 96 56 -7 c31 -3 83 -16 116 -27 l60 -20 62 60 c33 34 78 73 100
87 l38 26 -40 24 c-87 52 -264 104 -352 104 l-39 0 -3 87 c-2 47 -8 88 -13 90
-6 2 -80 -67 -165 -152z"/>
<path d="M2680 13300 l0 -100 -39 0 c-58 0 -176 -24 -260 -54 -154 -54 -310
-164 -413 -294 -66 -83 -145 -238 -171 -337 -19 -70 -38 -222 -30 -242 4 -11
34 -13 142 -11 l136 3 7 68 c19 193 123 369 279 473 79 52 203 99 292 109 l57
7 0 -111 c0 -83 3 -111 13 -111 7 0 91 79 187 175 l175 175 -175 175 c-96 96
-180 175 -187 175 -10 0 -13 -26 -13 -100z"/>
<path d="M11863 13368 c-75 -62 -163 -153 -163 -166 0 -8 39 -54 86 -103 84
-87 86 -90 70 -112 -49 -67 -50 -69 -39 -86 9 -14 37 -16 215 -19 157 -2 208
1 216 10 7 9 4 71 -9 201 -10 103 -21 192 -23 196 -3 5 -15 11 -27 14 -15 4
-33 -6 -66 -36 l-45 -42 -82 88 c-44 48 -84 87 -88 87 -4 0 -24 -14 -45 -32z
m122 -138 c44 -44 86 -80 93 -80 7 0 28 11 46 25 l33 25 6 -37 c3 -21 9 -77
13 -125 l7 -88 -132 0 -132 0 15 22 c9 12 16 29 16 36 0 8 -36 51 -80 96 -44
45 -80 86 -80 91 0 10 101 115 110 115 3 0 41 -36 85 -80z"/>
<path d="M11990 12785 c-63 -8 -125 -14 -138 -14 -14 -1 -27 -10 -33 -25 -10
-22 -7 -30 27 -71 l38 -47 -82 -79 c-45 -44 -82 -87 -82 -96 0 -21 168 -197
192 -201 11 -2 52 30 107 84 l91 86 36 -31 c22 -20 44 -31 57 -29 22 3 22 6
22 218 l0 215 -60 1 c-33 1 -112 -4 -175 -11z m170 -186 l0 -130 -22 15 c-12
9 -26 16 -30 16 -4 0 -49 -38 -100 -85 l-92 -85 -58 57 -58 57 85 87 c47 47
85 90 85 95 0 5 -13 26 -30 46 l-30 36 93 10 c50 5 107 10 125 11 l32 1 0
-131z"/>
<path d="M2360 12768 c-48 -30 -140 -108 -140 -118 0 -5 18 -37 40 -71 46 -72
77 -161 86 -255 l7 -65 121 3 121 3 3 44 c5 61 -24 192 -60 280 -36 85 -106
195 -128 198 -8 2 -31 -7 -50 -19z"/>
<path d="M12317 12768 c-2 -7 3 -98 13 -202 17 -191 22 -205 61 -206 8 0 30
16 49 35 19 19 39 35 46 35 7 0 45 -36 85 -80 43 -48 81 -80 92 -80 19 0 207
175 207 192 0 4 -39 50 -86 103 l-86 95 31 35 c33 37 35 44 25 69 -5 14 -34
16 -219 16 -161 0 -214 -3 -218 -12z m320 -76 c-10 -10 -17 -27 -17 -37 0 -9
36 -54 80 -99 44 -45 80 -87 80 -92 0 -5 -26 -33 -58 -61 l-59 -51 -84 84
c-46 46 -87 84 -91 84 -4 0 -23 -14 -42 -30 -34 -30 -34 -30 -39 -8 -3 13 -9
69 -13 126 l-7 102 133 0 c128 0 133 -1 117 -18z"/>
<path d="M14163 11275 c-80 -22 -131 -52 -195 -113 -118 -112 -166 -258 -134
-408 21 -103 58 -169 140 -248 l71 -69 3 -116 c2 -64 8 -122 14 -128 14 -17
167 -100 199 -108 36 -9 221 84 237 120 7 15 12 71 12 129 l0 103 73 74 c79
80 107 129 133 229 53 209 -73 441 -284 520 -74 28 -198 35 -269 15z m268
-102 c81 -38 144 -100 183 -183 27 -58 31 -75 31 -155 0 -82 -3 -97 -33 -158
-23 -47 -50 -81 -89 -114 -30 -27 -61 -60 -69 -75 l-15 -28 -154 0 -155 0 -80
79 c-108 107 -144 181 -143 296 0 102 28 176 90 245 83 92 174 132 294 127 59
-3 90 -10 140 -34z m-1 -828 l0 -35 -150 0 -150 0 0 35 0 35 150 0 150 0 0
-35z"/>
<path d="M14286 11124 c-19 -18 -19 -20 -6 -45 6 -11 21 -19 36 -19 33 0 93
-26 123 -53 29 -27 60 -93 61 -128 0 -33 22 -53 49 -44 28 9 34 37 21 99 -19
93 -85 164 -177 192 -60 18 -88 18 -107 -2z"/>
<path d="M6309 11256 c-36 -15 -567 -505 -575 -529 -8 -25 24 -69 59 -81 22
-8 33 -5 57 12 l30 23 0 -263 c0 -222 2 -267 16 -286 14 -21 22 -22 148 -22
116 0 135 2 149 18 15 16 17 46 17 210 l0 192 130 0 130 0 0 -188 c0 -247 -11
-232 169 -232 121 0 140 2 154 18 15 16 17 51 17 287 0 256 1 267 18 252 22
-20 54 -6 85 35 16 22 19 33 11 52 -9 24 -541 496 -573 507 -9 4 -28 2 -42 -5z"/>
<path d="M9609 11247 c-48 -26 -83 -70 -99 -126 -14 -49 -13 -824 1 -874 13
-49 63 -105 114 -128 37 -17 82 -19 650 -19 389 0 623 4 647 10 50 14 97 55
119 105 17 37 19 74 19 468 0 364 -2 433 -15 465 -21 49 -52 81 -100 103 -38
17 -79 19 -666 19 l-626 0 -44 -23z m1260 -84 c-1 -12 -570 -496 -584 -497
-11 -1 -595 490 -595 500 0 2 266 4 590 4 325 0 590 -3 589 -7z m-1051 -242
c106 -91 192 -168 192 -172 0 -5 -338 -397 -391 -453 -5 -6 -9 157 -9 393 0
221 4 401 8 399 5 -1 95 -77 200 -167z m1142 -231 c0 -220 -2 -400 -4 -400 -3
0 -95 103 -206 230 l-201 230 33 29 c154 134 364 311 371 311 4 0 7 -180 7
-400z m-780 -80 c45 -38 91 -70 102 -70 11 0 59 32 105 72 83 70 85 71 103 52
62 -65 390 -447 390 -455 0 -11 -1186 -13 -1193 -1 -5 7 392 470 405 471 4 1
43 -30 88 -69z"/>
<path d="M1993 11239 c-110 -42 -199 -159 -224 -294 -31 -172 62 -378 253
-561 92 -88 218 -180 331 -244 l57 -32 73 43 c279 164 480 376 542 571 88 279
-68 538 -324 538 -93 0 -169 -37 -242 -118 l-55 -61 -24 36 c-84 122 -250 175
-387 122z"/>
<path d="M3910 11247 c-197 -57 -321 -242 -290 -433 20 -122 40 -148 319 -425
276 -274 299 -291 364 -270 21 7 123 101 294 269 314 309 318 315 318 482 0
92 -3 112 -26 160 -41 85 -99 144 -187 187 -70 35 -83 38 -161 38 -98 0 -167
-20 -231 -66 l-41 -30 -34 26 c-78 61 -231 89 -325 62z m191 -89 c37 -12 76
-37 132 -81 l36 -28 64 48 c77 60 134 77 226 71 115 -8 200 -68 253 -178 16
-34 22 -63 22 -120 0 -125 -22 -155 -309 -434 -134 -130 -250 -236 -257 -236
-8 0 -128 111 -266 248 -287 282 -297 295 -297 422 0 125 55 214 167 270 50
24 74 30 128 30 37 0 82 -5 101 -12z"/>
<path d="M7947 10922 c-370 -371 -366 -365 -308 -423 35 -35 77 -38 115 -8
l26 20 0 -200 0 -201 505 0 505 0 0 201 0 200 26 -20 c38 -30 80 -27 115 8 58
58 62 52 -309 423 l-337 338 -338 -338z m753 -519 l0 -203 -120 0 -120 0 0
165 0 165 -175 0 -175 0 0 -165 0 -165 -120 0 -120 0 0 202 0 203 207 207 208
208 207 -207 208 -208 0 -202z"/>
<path d="M12425 11218 c-89 -25 -148 -48 -162 -61 -15 -15 -35 -70 -65 -176
l-42 -153 21 -38 20 -38 -244 -243 -244 -244 81 -77 c77 -72 83 -76 118 -71
60 8 62 10 62 56 0 42 2 45 31 51 17 3 43 6 57 6 24 0 24 2 19 45 -7 51 -8 50
66 60 l47 6 -6 40 c-7 40 -6 41 81 129 l87 88 34 -20 34 -20 147 41 c173 48
188 55 202 90 26 61 87 296 83 317 -2 12 -57 74 -121 138 -87 86 -124 116
-142 115 -13 0 -87 -19 -164 -41z m182 -178 c66 -40 66 -150 -1 -191 -61 -37
-140 -17 -170 45 -20 43 -20 59 0 102 30 62 108 83 171 44z"/>
<path d="M14203 9138 c-5 -7 -24 -47 -42 -89 -30 -70 -36 -77 -71 -89 -36 -12
-46 -10 -127 19 l-87 32 -48 -49 -49 -48 36 -86 36 -86 -18 -37 c-15 -32 -30
-42 -100 -73 l-83 -35 0 -71 0 -71 84 -34 c74 -29 86 -38 101 -70 16 -36 15
-39 -14 -116 -17 -44 -31 -84 -31 -89 0 -6 21 -31 46 -57 l46 -46 87 34 c85
34 88 35 125 19 32 -13 42 -26 76 -101 l40 -85 69 0 68 0 33 78 c41 95 44 98
86 112 30 10 44 8 120 -21 l86 -32 50 50 50 50 -32 74 c-37 86 -38 95 -21 136
10 24 27 37 89 63 42 18 83 38 90 43 7 6 12 34 12 72 l0 63 -89 37 c-82 34
-91 41 -105 75 -15 37 -14 41 19 122 l34 83 -47 48 c-25 26 -51 47 -57 47 -5
0 -45 -14 -88 -31 -72 -29 -81 -31 -117 -19 -35 12 -41 20 -78 101 l-41 89
-64 0 c-40 0 -68 -5 -74 -12z m180 -447 c65 -42 90 -95 85 -176 -3 -49 -10
-70 -31 -99 -58 -75 -169 -101 -252 -58 -71 36 -105 93 -105 175 0 150 173
240 303 158z"/>
<path d="M8384 9106 c-28 -13 -65 -41 -82 -62 -48 -58 -62 -118 -62 -266 l0
-128 -259 0 c-279 0 -283 -1 -296 -53 -3 -12 -5 -161 -3 -330 3 -292 4 -309
22 -323 16 -11 86 -14 387 -14 l368 0 15 22 c14 19 16 68 16 330 0 177 -4 318
-10 333 -6 17 -20 27 -40 31 l-30 7 0 132 c0 182 -1 180 155 180 157 0 155 2
155 -181 l0 -134 85 0 85 0 0 128 c0 148 -14 208 -62 266 -17 21 -54 49 -82
62 -45 21 -65 24 -181 24 -116 0 -136 -3 -181 -24z m-241 -728 c21 -25 22 -76
1 -99 -14 -16 -14 -24 0 -94 9 -43 16 -81 16 -86 0 -5 -34 -9 -75 -9 -41 0
-75 4 -75 9 0 5 7 43 16 85 14 69 14 78 0 98 -57 81 53 172 117 96z"/>
<path d="M6237 9096 c-90 -33 -163 -108 -187 -196 -5 -19 -10 -95 -10 -167 l0
-133 -53 0 c-93 0 -91 5 -95 -319 -3 -269 -2 -278 18 -304 l21 -27 399 0 399
0 20 26 c20 26 21 39 21 299 0 260 -1 273 -21 299 -18 22 -28 26 -75 26 l-54
0 0 138 c0 99 -4 151 -16 184 -36 107 -153 188 -269 188 -33 -1 -77 -7 -98
-14z m170 -156 c54 -32 63 -63 63 -210 l0 -130 -140 0 -140 0 0 133 c0 145 8
169 66 208 38 25 109 25 151 -1z m-33 -651 c50 -40 21 -119 -44 -119 -35 0
-70 34 -70 67 0 29 42 73 68 73 11 0 31 -9 46 -21z"/>
<path d="M11850 9092 c-37 -19 -88 -102 -75 -122 3 -5 22 -10 40 -10 24 0 45
-9 67 -29 28 -25 33 -36 33 -75 0 -59 -35 -97 -97 -105 l-43 -6 -3 -217 -2
-218 30 0 c89 0 149 -93 103 -160 -26 -39 -45 -49 -85 -50 -20 0 -40 -4 -43
-10 -12 -19 33 -99 67 -120 32 -19 49 -20 476 -20 488 0 478 -1 524 62 l23 33
3 470 3 470 -23 45 c-41 82 -31 80 -528 80 -401 0 -438 -1 -470 -18z m921 -81
c18 -22 19 -45 19 -483 l0 -459 -25 -24 -24 -25 -336 0 -335 0 0 510 0 511
341 -3 341 -3 19 -24z"/>
<path d="M12152 8958 c-17 -17 -15 -55 4 -62 9 -3 134 -6 278 -6 190 0 265 3
274 12 18 18 14 46 -7 58 -29 15 -533 14 -549 -2z"/>
<path d="M12147 8813 c-14 -13 -6 -53 12 -63 12 -6 118 -10 273 -10 275 0 293
3 286 51 l-3 24 -281 3 c-154 1 -283 -1 -287 -5z"/>
<path d="M12156 8667 c-11 -8 -17 -23 -14 -38 l3 -24 274 -3 c193 -2 278 1
287 9 20 16 17 47 -5 59 -31 16 -522 13 -545 -3z"/>
<path d="M12147 8523 c-14 -13 -6 -53 12 -63 12 -6 117 -10 271 -10 256 0 290
4 290 38 0 40 -14 42 -295 42 -150 0 -275 -3 -278 -7z"/>
<path d="M12156 8377 c-11 -8 -17 -23 -14 -38 l3 -24 274 -3 c193 -2 278 1
287 9 20 16 17 47 -5 59 -31 16 -522 13 -545 -3z"/>
<path d="M12153 8233 c-20 -8 -15 -51 6 -63 11 -5 83 -10 163 -10 158 0 183 7
176 51 l-3 24 -165 2 c-91 1 -171 -1 -177 -4z"/>
<path d="M2580 9079 c-60 -27 -117 -83 -146 -144 -22 -45 -24 -63 -24 -192 l0
-143 -254 0 c-240 0 -255 -1 -279 -21 -43 -33 -49 -74 -45 -326 l3 -233 33
-32 32 -33 313 -3 c438 -4 417 -19 417 318 0 118 -5 231 -10 251 -14 49 -40
70 -96 77 l-46 5 4 136 c3 128 5 139 31 183 18 31 44 57 75 75 100 59 230 26
289 -75 26 -44 28 -56 33 -196 4 -125 8 -151 22 -159 12 -8 21 -7 33 3 15 12
16 34 13 174 -4 181 -12 208 -85 278 -57 55 -115 78 -198 78 -49 0 -84 -7
-115 -21z m-42 -561 c18 -18 17 -461 -2 -477 -9 -8 -101 -11 -317 -9 l-304 3
-3 234 c-2 164 1 238 9 247 16 19 598 21 617 2z"/>
<path d="M2202 8408 c-7 -7 -12 -33 -12 -59 0 -29 -6 -51 -15 -59 -22 -18 -19
-76 5 -100 45 -45 120 -11 120 54 0 18 -7 39 -15 46 -9 8 -15 30 -15 59 0 49
-13 71 -40 71 -9 0 -21 -5 -28 -12z"/>
<path d="M4161 9083 c-63 -23 -133 -96 -160 -166 -17 -48 -21 -79 -21 -185 l0
-128 -32 -9 c-17 -6 -41 -23 -52 -38 -20 -27 -21 -41 -21 -283 l0 -254 33 -32
32 -33 313 -3 c442 -4 419 -22 415 340 -3 222 -4 238 -24 265 -11 15 -34 32
-51 37 l-31 10 -4 140 c-3 118 -7 149 -25 187 -25 57 -84 118 -138 144 -54 26
-174 30 -234 8z m170 -64 c52 -16 108 -64 130 -113 15 -33 19 -66 19 -173 l0
-133 -210 0 -210 0 0 135 c0 155 11 189 77 244 59 49 121 61 194 40z m247
-501 c18 -18 17 -461 -2 -477 -9 -8 -101 -11 -317 -9 l-304 3 -3 234 c-2 164
1 238 9 247 16 19 598 21 617 2z"/>
<path d="M4242 8408 c-7 -7 -12 -33 -12 -59 0 -29 -6 -51 -15 -59 -22 -18 -19
-76 5 -100 45 -45 120 -11 120 54 0 18 -7 39 -15 46 -9 8 -15 30 -15 59 0 49
-13 71 -40 71 -9 0 -21 -5 -28 -12z"/>
<path d="M9867 9093 c-4 -3 -7 -37 -7 -75 l0 -68 -59 0 c-75 0 -91 -14 -91
-79 0 -64 19 -81 93 -81 l57 0 0 -35 0 -35 -63 0 c-36 0 -68 -5 -75 -12 -7 -7
-12 -36 -12 -64 0 -66 21 -84 97 -84 l53 0 0 -35 0 -35 -63 0 c-36 0 -68 -5
-75 -12 -15 -15 -16 -92 -2 -119 9 -16 22 -19 75 -19 l65 0 0 -35 0 -35 -53 0
c-75 0 -97 -18 -97 -80 0 -66 16 -80 91 -80 l59 0 0 -75 0 -75 473 0 474 0 21
23 22 23 0 526 0 527 -26 20 c-26 21 -36 21 -489 21 -254 0 -465 -3 -468 -7z
m223 -563 l0 -490 -75 0 -75 0 0 35 c0 32 3 35 28 35 41 0 52 17 52 82 0 61
-13 78 -59 78 -17 0 -21 6 -21 35 0 32 3 35 28 35 40 0 52 17 52 71 0 68 -7
79 -46 79 -32 0 -34 2 -34 35 0 30 3 35 24 35 39 0 56 25 56 84 0 59 -12 76
-52 76 -25 0 -28 3 -28 35 0 30 3 35 24 35 39 0 56 25 56 84 0 59 -12 76 -52
76 -25 0 -28 3 -28 35 l0 35 75 0 75 0 0 -490z"/>
<path d="M13634 6966 c-82 -36 -86 -144 -7 -185 66 -34 143 18 143 96 0 38
-25 72 -66 89 -39 16 -32 16 -70 0z"/>
<path d="M2260 6963 c-116 -19 -244 -92 -315 -179 -82 -101 -114 -194 -115
-330 0 -142 51 -264 154 -362 101 -97 212 -142 350 -142 90 0 133 10 219 47
l58 26 107 -105 c117 -116 145 -130 205 -104 40 16 67 59 67 107 0 27 -16 48
-111 145 l-111 112 27 57 c15 32 34 92 42 134 54 260 -128 530 -396 587 -64
13 -129 16 -181 7z m209 -172 c106 -40 187 -133 217 -251 40 -158 -40 -330
-191 -408 -40 -20 -68 -26 -140 -30 -124 -5 -187 18 -271 102 -84 84 -107 147
-102 271 4 73 9 100 32 143 47 93 140 166 243 192 53 13 151 5 212 -19z"/>
<path d="M2140 6510 c-30 -30 -27 -83 6 -109 24 -19 40 -21 185 -21 96 0 168
4 183 11 51 23 55 103 7 128 -12 7 -89 11 -190 11 -158 0 -173 -2 -191 -20z"/>
<path d="M5782 6958 c-12 -6 -24 -21 -27 -32 -2 -12 -7 -118 -10 -237 -5 -177
-4 -223 8 -250 8 -19 135 -169 282 -334 200 -225 273 -301 293 -303 22 -3 66
37 309 280 191 191 283 290 283 304 0 15 -86 97 -296 285 -163 145 -311 272
-328 282 -27 15 -59 17 -261 16 -145 0 -238 -4 -253 -11z m243 -163 c31 -30
32 -71 3 -102 -45 -48 -128 -18 -128 47 0 38 39 80 75 80 14 0 37 -11 50 -25z
m565 -410 l0 -45 -240 0 -240 0 0 45 0 45 240 0 240 0 0 -45z"/>
<path d="M7765 6961 c-11 -5 -29 -19 -40 -31 -18 -20 -20 -39 -23 -206 -5
-285 -31 -238 336 -606 322 -324 338 -336 393 -308 33 17 407 389 425 422 33
64 35 61 -293 390 -373 373 -330 348 -596 347 -100 0 -191 -4 -202 -8z m251
-172 c28 -27 36 -66 19 -106 -16 -38 -41 -53 -89 -53 -53 0 -91 37 -91 88 0
87 98 130 161 71z"/>
<path d="M11638 6954 c-34 -18 -48 -43 -48 -86 0 -44 22 -74 64 -88 41 -13 75
-2 105 36 36 45 21 113 -30 140 -35 18 -57 17 -91 -2z"/>
<path d="M11874 6960 c-56 -22 -73 -112 -30 -155 13 -13 39 -26 57 -30 19 -3
256 -5 527 -3 l494 3 29 33 c16 18 29 44 29 58 0 37 -25 78 -55 92 -31 14
-1016 16 -1051 2z"/>
<path d="M13993 6955 c-61 -26 -72 -97 -24 -146 l29 -29 457 0 c467 0 483 1
512 39 15 20 17 76 3 102 -26 48 -40 49 -507 49 -350 -1 -444 -4 -470 -15z"/>
<path d="M4048 6941 c-364 -117 -476 -573 -206 -843 152 -153 386 -191 579
-95 l48 23 93 -93 c51 -52 105 -101 120 -109 92 -48 194 36 158 131 -6 16 -56
75 -111 131 l-101 102 20 38 c57 115 72 254 38 369 -50 171 -187 305 -357 350
-75 20 -211 18 -281 -4z m310 -164 c73 -38 128 -97 165 -175 27 -57 31 -78 31
-147 0 -106 -34 -183 -110 -255 -80 -76 -129 -95 -244 -95 -88 0 -101 3 -162
33 -77 37 -128 90 -167 172 -22 47 -26 68 -26 145 0 82 3 97 33 157 39 80 110
148 185 178 78 31 222 24 295 -13z"/>
<path d="M4168 6666 c-30 -15 -48 -52 -48 -98 l0 -38 -45 0 c-35 0 -52 -6 -70
-25 -53 -52 -13 -125 68 -125 l44 0 5 -52 c6 -59 32 -88 79 -88 45 0 69 31 69
90 l0 50 40 0 c77 0 123 46 101 103 -13 34 -39 47 -95 47 l-46 0 0 48 c0 26
-7 57 -15 69 -18 25 -57 34 -87 19z"/>
<path d="M9607 6942 c-25 -28 -24 -172 1 -195 17 -15 78 -17 673 -17 550 0
658 2 675 14 16 12 19 27 19 99 0 56 -4 89 -14 100 -12 16 -72 17 -676 17
-629 0 -663 -1 -678 -18z"/>
<path d="M11643 6626 c-38 -17 -53 -43 -53 -91 0 -68 70 -110 133 -80 61 29
75 96 30 144 -34 37 -68 45 -110 27z"/>
<path d="M11873 6626 c-37 -17 -53 -43 -53 -86 0 -42 15 -67 50 -85 25 -13
102 -15 523 -15 336 0 504 4 526 11 34 12 61 53 61 93 0 14 -13 40 -29 58
l-29 33 -509 2 c-416 2 -514 0 -540 -11z"/>
<path d="M9607 6482 c-25 -28 -24 -172 1 -195 17 -15 78 -17 673 -17 550 0
658 2 675 14 16 12 19 27 19 99 0 56 -4 89 -14 100 -12 16 -72 17 -676 17
-629 0 -663 -1 -678 -18z"/>
<path d="M13634 6476 c-85 -38 -85 -146 0 -181 42 -18 81 -8 111 27 34 41 33
89 -2 127 -34 37 -68 45 -109 27z"/>
<path d="M13969 6451 c-21 -22 -29 -39 -29 -66 0 -27 8 -44 29 -66 l29 -29
460 0 460 0 31 26 c26 21 31 33 31 69 0 36 -5 48 -31 69 l-31 26 -460 0 -460
0 -29 -29z"/>
<path d="M11644 6310 c-58 -23 -72 -105 -27 -152 38 -40 93 -39 134 1 74 75
-9 191 -107 151z"/>
<path d="M11849 6291 c-40 -40 -41 -101 -3 -136 l27 -25 524 0 525 0 30 30
c27 27 30 36 25 72 -3 22 -15 50 -27 62 -20 21 -27 21 -546 24 l-525 3 -30
-30z"/>
<path d="M9607 6022 c-25 -28 -24 -172 1 -195 17 -15 79 -17 679 -17 602 0
662 1 674 17 10 11 14 44 14 100 0 72 -3 87 -19 99 -17 12 -125 14 -676 14
-624 0 -658 -1 -673 -18z"/>
<path d="M11643 5986 c-37 -17 -53 -43 -53 -88 0 -67 60 -110 125 -88 65 22
85 98 38 149 -34 37 -68 45 -110 27z"/>
<path d="M11873 5986 c-17 -8 -36 -23 -42 -35 -19 -35 -13 -88 13 -118 l24
-28 504 -3 c343 -2 515 0 540 8 69 20 88 97 39 152 l-29 33 -509 2 c-416 2
-514 0 -540 -11z"/>
<path d="M13625 5988 c-81 -44 -69 -163 18 -186 86 -23 153 60 115 143 -21 46
-88 68 -133 43z"/>
<path d="M13966 5959 c-28 -32 -34 -76 -15 -111 24 -45 51 -48 509 -48 458 0
485 3 509 48 20 37 13 91 -14 117 l-24 25 -470 0 -469 0 -26 -31z"/>
<path d="M12183 4849 c-75 -13 -154 -45 -223 -90 -346 -231 -347 -739 -3 -972
318 -215 753 -70 879 293 146 418 -215 842 -653 769z m138 -435 c132 -75 239
-140 239 -143 0 -6 -474 -281 -485 -281 -3 0 -5 126 -5 280 0 154 3 280 6 280
4 0 114 -61 245 -136z"/>
<path d="M6116 4829 c-227 -92 -381 -339 -363 -583 37 -511 648 -740 1007
-377 69 70 122 153 144 228 7 21 5 20 -71 -9 -144 -56 -285 -49 -428 21 -255
126 -367 441 -245 693 11 23 20 43 20 45 0 6 -16 2 -64 -18z"/>
<path d="M2129 4817 c-120 -41 -197 -111 -252 -227 -26 -54 -32 -80 -35 -155
-6 -143 39 -252 144 -344 168 -148 410 -141 575 15 215 206 160 559 -109 691
-66 33 -84 38 -166 40 -75 3 -103 0 -157 -20z m277 -120 c67 -34 138 -114 160
-179 23 -69 16 -187 -15 -246 -31 -60 -94 -120 -158 -149 -49 -22 -65 -25
-141 -21 -101 5 -151 26 -212 89 -65 67 -85 120 -85 224 0 102 19 150 84 218
66 71 136 98 241 93 57 -2 87 -9 126 -29z"/>
<path d="M2149 4632 c-33 -17 -65 -44 -83 -69 -28 -40 -58 -130 -49 -145 2 -5
20 -8 39 -8 28 0 34 4 34 20 0 31 36 95 67 120 15 12 47 26 70 33 40 10 43 14
43 44 0 31 -2 33 -34 33 -18 0 -58 -13 -87 -28z"/>
<path d="M4166 4829 c-65 -15 -153 -69 -206 -125 -119 -126 -151 -315 -80
-467 36 -77 366 -532 387 -535 17 -2 56 47 198 248 186 263 220 326 230 425 7
67 -12 171 -44 233 -28 55 -106 138 -158 168 -96 57 -223 77 -327 53z m174
-296 c34 -19 70 -80 70 -117 0 -78 -62 -140 -141 -140 -139 0 -191 177 -74
254 37 25 107 26 145 3z"/>
<path d="M10268 4827 c-8 -6 -37 -42 -63 -79 -27 -38 -55 -68 -61 -68 -7 0
-50 12 -94 26 -45 14 -88 23 -96 20 -11 -4 -14 -28 -14 -105 l0 -99 -97 -33
c-70 -24 -98 -39 -97 -50 1 -8 26 -49 57 -91 l56 -76 -59 -82 c-32 -45 -57
-87 -54 -94 2 -6 46 -26 97 -42 l92 -30 3 -103 c2 -69 7 -103 15 -107 7 -2 54
9 105 25 l94 29 56 -79 c32 -44 64 -78 74 -79 10 0 41 33 74 80 32 44 63 79
68 77 6 -3 51 -17 99 -33 76 -24 89 -26 97 -14 6 8 10 58 10 111 l0 95 91 29
c50 16 94 35 96 42 3 7 -21 48 -52 93 -34 48 -53 85 -49 92 4 7 29 43 57 81
27 37 47 73 44 81 -3 8 -45 27 -94 43 l-88 30 -3 84 c-4 147 -1 145 -134 100
l-86 -29 -50 72 c-63 90 -74 100 -94 83z m163 -229 c76 -35 129 -85 170 -160
32 -60 34 -68 34 -163 0 -87 -3 -107 -27 -157 -34 -73 -98 -137 -174 -173 -51
-25 -71 -29 -149 -30 -77 0 -98 4 -147 27 -79 37 -142 98 -181 177 -29 58 -32
75 -32 151 0 75 4 93 32 150 46 97 109 155 204 190 78 29 194 24 270 -12z"/>
<path d="M10193 4566 c-161 -52 -249 -208 -209 -366 63 -244 356 -319 525
-135 139 153 91 396 -97 485 -58 28 -160 35 -219 16z"/>
<path d="M8039 4793 c-95 -47 -203 -152 -248 -242 -39 -77 -71 -196 -71 -265
1 -146 65 -300 170 -405 278 -281 743 -206 919 148 23 46 39 86 36 89 -2 3
-33 -8 -67 -23 -83 -37 -232 -47 -324 -20 -218 63 -366 244 -381 465 -6 83 13
184 47 250 26 51 16 52 -81 3z m-48 -505 c95 -188 264 -321 462 -362 l62 -12
-41 -22 c-23 -11 -71 -26 -107 -33 -207 -38 -423 99 -482 305 -24 82 -17 212
15 285 l24 54 23 -86 c12 -48 32 -106 44 -129z"/>
<path d="M13730 4736 l0 -83 31 -7 c17 -3 46 -6 63 -6 100 -1 287 -66 402
-141 241 -158 399 -419 421 -696 l6 -84 86 3 86 3 -3 65 c-17 370 -241 720
-576 901 -133 71 -341 129 -467 129 l-49 0 0 -84z"/>
<path d="M13730 4391 l0 -91 43 0 c174 0 383 -138 470 -311 36 -70 66 -182 67
-241 l0 -28 85 0 85 0 0 53 c0 173 -111 395 -260 523 -113 97 -274 166 -417
180 l-73 7 0 -92z"/>
<path d="M2656 4109 c-15 -22 -50 -57 -76 -78 l-48 -38 144 -144 144 -144 49
0 c38 0 55 5 75 24 31 29 43 81 27 119 -7 16 -73 90 -149 165 l-137 136 -29
-40z"/>
<path d="M13809 4027 c-52 -35 -79 -82 -79 -139 0 -149 161 -221 271 -121 65
59 74 137 24 214 -44 68 -149 91 -216 46z"/>
<path d="M14587 2733 c-4 -3 -7 -52 -7 -108 l0 -102 -93 -11 c-502 -62 -875
-440 -926 -937 -6 -61 -6 -94 1 -103 8 -9 48 -12 157 -10 l146 3 11 85 c16
120 29 162 82 265 55 107 169 228 272 288 79 46 196 84 284 93 l66 7 0 -114
c0 -63 5 -121 10 -129 8 -12 49 24 205 180 107 107 195 202 195 210 0 17 -369
390 -386 390 -6 0 -14 -3 -17 -7z"/>
<path d="M12040 2345 l-385 -385 243 -242 242 -243 385 386 386 385 -38 194
-38 195 -200 47 c-110 26 -202 48 -205 48 -3 0 -178 -173 -390 -385z m590 289
c85 -20 157 -38 160 -41 3 -2 19 -77 37 -166 l31 -162 -359 -360 -359 -360
-207 208 -208 207 360 360 c235 235 365 358 375 355 8 -3 85 -21 170 -41z"/>
<path d="M12560 2500 c-42 -42 -11 -113 50 -113 58 0 89 62 54 111 -20 29 -76
30 -104 2z"/>
<path d="M7952 2698 c-6 -6 -12 -31 -12 -55 l0 -43 -91 0 c-94 0 -122 -8 -151
-44 -16 -19 -18 -62 -18 -506 0 -538 -3 -517 66 -546 49 -21 1029 -21 1078 0
69 29 66 8 66 544 0 312 -4 490 -10 503 -19 35 -64 49 -159 49 l-90 0 -3 46
c-3 54 -26 77 -55 58 -12 -7 -19 -27 -21 -58 l-3 -46 -110 0 -109 0 0 36 c0
49 -16 74 -46 74 -27 0 -44 -30 -44 -81 l0 -29 -109 0 -110 0 -3 53 c-3 47 -5
52 -28 55 -14 2 -31 -3 -38 -10z m-12 -222 c0 -35 5 -48 22 -60 36 -25 58 -5
58 54 l0 50 110 0 110 0 0 -36 c0 -66 35 -99 70 -64 13 13 20 33 20 60 l0 40
109 0 110 0 3 -52 c3 -47 6 -53 26 -56 36 -5 52 15 52 65 l0 44 88 -3 87 -3 3
-467 2 -468 -525 0 -525 0 0 463 c0 255 3 467 7 470 3 4 44 7 90 7 l83 0 0
-44z"/>
<path d="M7940 2200 l0 -60 80 0 80 0 0 60 0 60 -80 0 -80 0 0 -60z"/>
<path d="M8210 2200 l0 -60 75 0 75 0 0 60 0 60 -75 0 -75 0 0 -60z"/>
<path d="M8470 2200 l0 -60 80 0 80 0 0 60 0 60 -80 0 -80 0 0 -60z"/>
<path d="M7940 2010 l0 -60 80 0 80 0 0 60 0 60 -80 0 -80 0 0 -60z"/>
<path d="M8210 2010 l0 -60 75 0 75 0 0 60 0 60 -75 0 -75 0 0 -60z"/>
<path d="M8470 2010 l0 -60 80 0 80 0 0 60 0 60 -80 0 -80 0 0 -60z"/>
<path d="M7940 1820 l0 -60 80 0 80 0 0 60 0 60 -80 0 -80 0 0 -60z"/>
<path d="M8210 1820 l0 -60 75 0 75 0 0 60 0 60 -75 0 -75 0 0 -60z"/>
<path d="M8470 1820 l0 -60 80 0 80 0 0 60 0 60 -80 0 -80 0 0 -60z"/>
<path d="M3682 2688 c-17 -17 -18 -1148 0 -1166 17 -17 1159 -17 1176 0 16 16
15 23 -4 42 -14 14 -79 16 -565 16 l-549 0 -2 558 c-3 549 -3 557 -23 560 -11
1 -26 -3 -33 -10z"/>
<path d="M9876 2689 c-21 -5 -51 -18 -67 -30 -58 -41 -59 -48 -59 -396 0 -291
2 -321 19 -353 25 -46 89 -80 155 -80 l51 -1 98 -154 c54 -85 102 -155 105
-155 4 0 51 70 106 155 l98 155 154 0 c172 0 203 7 247 59 l27 33 0 338 0 338
-26 32 c-56 66 -49 65 -479 67 -216 1 -407 -3 -429 -8z m829 -39 c14 -5 37
-22 50 -36 l25 -27 0 -322 c0 -315 0 -323 -22 -350 -37 -47 -72 -55 -242 -55
l-154 0 -89 -140 c-48 -76 -91 -139 -94 -140 -4 0 -46 62 -95 139 l-88 139
-66 4 c-77 6 -117 27 -136 75 -19 45 -20 616 -1 653 7 13 28 35 46 47 34 23
34 23 437 23 241 0 413 -4 429 -10z"/>
<path d="M9952 2343 c3 -17 28 -18 341 -21 332 -2 337 -2 337 18 0 20 -6 20
-341 20 -319 0 -340 -1 -337 -17z"/>
<path d="M9957 2193 c-4 -3 -7 -12 -7 -20 0 -11 63 -13 340 -13 333 0 340 0
340 20 0 20 -7 20 -333 20 -184 0 -337 -3 -340 -7z"/>
<path d="M6464 2676 c-188 -47 -315 -247 -271 -426 l14 -55 -229 -230 -228
-231 0 -86 c0 -82 2 -88 26 -107 22 -17 41 -21 100 -21 70 0 76 2 113 35 32
29 46 35 84 35 84 0 117 31 117 110 l0 40 50 0 c70 0 90 22 90 98 0 55 2 60
44 101 43 42 44 42 83 31 22 -7 73 -11 114 -8 217 11 369 200 337 418 -31 204
-245 347 -444 296z m179 -82 c61 -21 139 -91 168 -151 31 -65 32 -169 3 -234
-66 -143 -225 -210 -368 -155 l-49 19 -69 -70 c-67 -70 -68 -71 -68 -126 l0
-54 -52 -5 c-68 -7 -98 -39 -98 -104 l0 -44 -55 0 c-49 0 -59 -4 -94 -35 -32
-29 -46 -35 -83 -35 l-45 0 -6 48 -6 47 241 241 240 241 -17 32 c-23 45 -30
120 -15 180 39 165 212 260 373 205z"/>
<path d="M6540 2518 c-18 -13 -41 -38 -51 -57 -23 -44 -13 -65 74 -148 74 -71
98 -77 147 -37 29 25 60 72 60 92 0 17 -72 101 -117 136 -54 42 -69 44 -113
14z m126 -83 l65 -64 -16 -31 c-9 -17 -27 -36 -40 -42 -19 -9 -29 -6 -59 17
-56 42 -99 101 -91 125 6 20 51 60 67 60 6 0 39 -29 74 -65z"/>
<path d="M2325 2674 c-143 -30 -223 -71 -316 -164 -121 -119 -173 -243 -172
-410 2 -427 445 -697 832 -507 91 44 207 160 249 247 112 233 73 490 -103 665
-81 81 -161 127 -271 155 -70 18 -168 24 -219 14z m113 -386 l3 -148 143 0
c153 0 175 -7 161 -49 -6 -19 -16 -21 -153 -23 l-147 -3 -3 -147 c-2 -137 -4
-147 -23 -153 -42 -14 -49 8 -49 161 l0 143 -147 3 -148 3 0 30 0 30 148 3
147 3 0 133 c0 74 3 142 6 151 4 10 16 15 33 13 l26 -3 3 -147z"/>
<path d="M4437 2438 c-26 -20 -71 -114 -106 -221 -34 -100 -70 -157 -100 -157
-9 0 -28 8 -41 17 -23 17 -53 34 -108 64 -19 11 -27 9 -50 -8 -15 -11 -29 -29
-31 -39 -2 -10 -16 -35 -30 -54 -30 -38 -61 -91 -111 -188 -26 -51 -30 -65
-20 -77 25 -31 48 -17 86 53 76 138 105 181 127 187 12 3 32 11 43 17 17 8 29
5 63 -17 93 -62 190 3 231 155 7 25 21 68 32 97 27 73 47 71 90 -9 37 -68 45
-75 73 -54 19 13 19 15 -9 77 -16 35 -35 82 -43 104 -15 43 -37 65 -63 65 -9
0 -24 -6 -33 -12z"/>
<path d="M7565 600 c-4 -6 -1 -17 5 -25 10 -12 9 -15 -3 -15 -9 0 -23 -7 -32
-16 -27 -27 -87 -65 -93 -59 -3 3 -13 -2 -22 -10 -16 -14 -19 -14 -33 0 -18
17 -27 19 -27 6 0 -5 9 -13 21 -16 17 -6 20 -13 15 -35 -3 -19 -1 -30 9 -34 9
-3 15 3 18 17 2 12 5 3 6 -20 1 -37 4 -43 24 -44 16 -1 18 -2 5 -6 -24 -6 -23
-16 8 -52 46 -55 141 -63 226 -20 58 29 86 107 58 159 -7 14 -6 17 8 16 13 -1
16 6 14 26 -1 14 2 29 8 33 13 8 13 25 0 25 -5 0 -10 -7 -10 -15 0 -17 -16
-20 -26 -4 -3 6 -15 8 -27 5 -11 -3 -30 0 -41 6 -12 7 -37 15 -56 19 l-35 7
30 2 c29 2 29 2 5 9 -15 4 -25 14 -25 26 0 21 -20 31 -30 15z"/>
<path d="M7900 530 c-11 -11 -20 -28 -20 -39 0 -11 -9 -21 -22 -25 l-23 -6 23
-19 c18 -16 22 -29 22 -83 0 -70 10 -94 34 -85 13 5 16 22 16 81 0 65 2 74 20
79 26 7 26 27 0 34 -30 8 -21 37 13 41 29 4 37 26 11 36 -29 11 -54 6 -74 -14z"/>
<path d="M8861 541 c-8 -5 -11 -45 -9 -137 3 -121 4 -129 23 -129 15 0 21 8
23 32 2 17 9 37 17 43 12 10 20 3 42 -34 16 -27 35 -46 45 -46 26 0 22 30 -11
82 l-29 46 24 23 c28 26 30 37 8 46 -10 4 -30 -8 -55 -33 l-39 -38 0 71 c0 71
-10 91 -39 74z"/>
<path d="M6056 463 c-3 -3 -6 -18 -6 -33 0 -24 -3 -27 -25 -22 -51 9 -83 -55
-55 -108 8 -16 21 -19 60 -19 l50 2 0 88 c0 81 -7 109 -24 92z"/>
<path d="M6892 458 c-7 -7 -12 -20 -12 -30 0 -12 -8 -18 -24 -18 -28 0 -56
-24 -56 -48 0 -12 -8 -7 -26 16 -30 37 -64 42 -94 12 -24 -24 -26 -57 -4 -88
13 -19 24 -22 57 -20 29 2 42 8 42 18 0 11 -9 14 -32 12 -17 -2 -34 1 -37 6
-3 6 14 12 40 14 40 3 47 0 57 -22 11 -22 19 -25 65 -27 l52 -1 0 88 c0 89 -7
109 -28 88z"/>
<path d="M7016 463 c-3 -3 -6 -45 -6 -93 l0 -86 42 -1 c50 -2 78 18 78 56 0
43 -28 74 -61 69 -26 -4 -29 -2 -29 23 0 28 -12 44 -24 32z"/>
<path d="M8145 445 c-20 -19 -25 -34 -25 -73 0 -68 22 -93 86 -99 57 -6 103
20 91 51 -6 16 -9 16 -36 -3 -36 -26 -53 -26 -74 -3 -31 34 -21 42 47 42 70 0
81 7 72 45 -17 66 -112 89 -161 40z"/>
<path d="M8362 455 c-41 -29 -46 -125 -8 -163 8 -8 36 -17 63 -19 56 -6 102
20 90 51 -6 15 -10 15 -46 -6 -39 -22 -40 -22 -60 -4 -38 34 -27 46 43 46 48
0 65 4 70 15 7 20 -2 45 -27 73 -25 27 -91 30 -125 7z"/>
<path d="M8540 336 c0 -109 3 -135 15 -140 19 -7 35 23 35 64 0 27 2 30 19 20
33 -17 71 -11 96 15 20 19 25 34 25 75 0 41 -5 56 -25 75 -26 27 -63 32 -98
14 -16 -9 -22 -9 -25 0 -2 6 -12 11 -23 11 -18 0 -19 -9 -19 -134z"/>
<path d="M9173 446 c-24 -21 -28 -32 -28 -76 0 -44 4 -55 28 -76 36 -31 94
-32 131 -3 30 24 35 59 8 59 -9 0 -23 -9 -30 -21 -18 -29 -62 -22 -81 13 -35
63 32 117 84 68 20 -18 23 -19 35 -5 11 13 9 20 -10 40 -32 34 -98 35 -137 1z"/>
<path d="M9376 439 c-58 -69 -15 -169 73 -169 28 0 48 7 68 24 24 21 28 32 28
76 0 44 -4 55 -28 76 -20 17 -40 24 -72 24 -36 0 -47 -5 -69 -31z"/>
<path d="M9574 457 c-3 -8 -4 -52 -2 -98 3 -76 5 -84 23 -84 18 0 21 8 25 67
5 71 16 92 46 86 16 -3 20 -15 24 -78 4 -67 7 -75 25 -75 18 0 20 8 23 65 3
69 13 90 43 90 21 0 28 -20 31 -100 3 -47 6 -55 23 -55 18 0 20 8 23 74 4 90
-12 121 -61 121 -18 0 -37 -4 -43 -10 -6 -6 -21 -6 -42 2 -24 9 -39 10 -62 1
-17 -7 -32 -7 -36 -2 -8 14 -34 11 -40 -4z"/>
<path d="M6406 391 c-18 -20 -21 -63 -6 -92 8 -13 21 -19 46 -19 22 0 33 -4
29 -11 -4 -6 -23 -9 -43 -7 -20 1 -37 -2 -39 -9 -6 -16 13 -25 55 -25 50 0 62
21 62 107 l0 71 -44 2 c-31 1 -48 -4 -60 -17z"/>
</g>
</svg>
